<svg width="56" height="56" viewBox="0 0 56 56" fill="none" xmlns="http://www.w3.org/2000/svg">
<path d="M52.71 14.7087C48.2202 5.92594 38.5285 0.875 27.9902 0.875C14.9899 0.875 4.10267 10.0275 1.4733 22.2753C4.31705 17.1905 10.9036 13.6194 17.8205 13.6194C26.4906 13.6194 31.0647 18.9711 31.1916 19.1078C33.5978 21.7109 34.801 24.6192 34.801 28.1969C34.801 29.3344 34.2202 31.0209 33.1483 32.4155C32.9766 32.6342 32.4494 32.9448 32.4494 33.6186C32.4494 34.172 32.8092 34.7036 33.4491 35.1498C36.4963 37.2684 42.2395 36.9884 42.2549 36.9884C44.5115 36.9823 46.7251 36.3711 48.6653 35.2188C50.6235 34.0752 52.2486 32.4397 53.3796 30.4743C54.5106 28.5089 55.1082 26.282 55.113 24.0144C55.1677 19.2642 53.4177 16.1066 52.71 14.7087ZM23.2717 52.0264C21.2432 50.7639 19.5048 49.0866 18.1705 47.1045C14.5677 41.918 14.4255 36.6483 15.972 32.2295C17.0718 28.7596 19.2559 25.734 22.2031 23.5977C28.6563 18.6539 32.5763 22.9797 33.0378 23.4883C32.8858 23.1065 32.7071 22.7359 32.503 22.3792C31.4924 20.6369 29.878 18.3969 26.3167 16.5266C22.6286 14.5917 18.596 14.4933 17.8249 14.4933C13.591 14.4933 9.30455 15.9152 6.06377 18.3969C3.90252 20.0484 1.39673 22.8288 0.94064 26.5781C0.822515 27.9245 0.639859 33.4469 3.45627 39.5139C5.83178 44.5822 9.71705 48.7914 14.5792 51.5644C19.4414 54.3374 25.0424 55.5384 30.6141 55.0025C26.4447 54.2784 23.4117 52.0888 23.2717 52.0264ZM50.6942 41.2716C50.5654 41.1899 50.417 41.1445 50.2646 41.1401C50.1121 41.1357 49.9613 41.1724 49.828 41.2464C49.1051 41.6244 48.3595 41.9576 47.5956 42.2439C45.1629 43.1539 42.586 43.6178 39.9886 43.6133C29.9622 43.6133 21.2286 36.7161 21.2286 27.8633C21.2407 26.8465 21.4846 25.8458 21.9417 24.9375C20.1964 26.4768 18.758 28.3323 17.7024 30.4062C16.0705 33.6186 14.093 40.0455 19.1603 46.9941C19.8724 47.9686 21.676 50.2753 25.2853 52.208C27.8633 53.5916 30.6447 54.3528 33.1275 54.3528C36.971 54.3528 45.7527 50.6953 50.9556 42.4452C51.0159 42.351 51.0569 42.2459 51.0763 42.1359C51.0958 42.0259 51.0933 41.9131 51.069 41.804C51.0447 41.6949 50.9991 41.5917 50.9348 41.5004C50.8705 41.409 50.7887 41.3312 50.6942 41.2716Z" fill="#687363"/>
</svg>
